<?xml version="1.0" encoding="utf-8"?>
<!-- Generator: Adobe Illustrator 17.0.2, SVG Export Plug-In . SVG Version: 6.00 Build 0)  -->
<!DOCTYPE svg PUBLIC "-//W3C//DTD SVG 1.1//EN" "http://www.w3.org/Graphics/SVG/1.1/DTD/svg11.dtd">
<svg version="1.1" id="Layer_1" xmlns="http://www.w3.org/2000/svg" xmlns:xlink="http://www.w3.org/1999/xlink" x="0px" y="0px"
	 width="49px" height="49px" viewBox="0 0 49 49" enable-background="new 0 0 49 49" xml:space="preserve">
<g>
	<g>
		<path fill="#E74C50" d="M24.5,0C10.99,0,0,10.99,0,24.5C0,38.012,10.99,49,24.5,49C38.01,49,49,38.012,49,24.5
			C49,10.99,38.01,0,24.5,0z M24.5,47.001C12.094,47.001,2,36.907,2,24.5C2,12.094,12.094,2,24.5,2C36.906,2,47,12.094,47,24.5
			C47,36.907,36.906,47.001,24.5,47.001z M19.5,33.493l13.993-9.492L19.5,14.509V33.493z M21.5,18.501l8.388,5.5l-8.388,5.5V18.501z
			"/>
	</g>
</g>
</svg>
